# AST/ASF file generated using VICON BodyLanguage
# -----------------------------------------------
:version 1.10
:name VICON
:units
  mass 1.0
  length 0.45
  angle deg
:documentation
   .ast/.asf automatically generated from VICON data using
   VICON BodyBuilder and BodyLanguage model FoxedUp or BRILLIANT.MOD
:root
   order TX TY TZ RX RY RZ
   axis XYZ
   position 0 0 0  
   orientation 0 0 0 
:bonedata
  begin
     id 1 
     name lhipjoint
     direction 0.547975 -0.797114 0.253638 
     length 2.36201 
     axis 0 0 0  XYZ
  end
  begin
     id 2 
     name lfemur
     direction 0.34202 -0.939693 0  
     length 7.69075  
     axis 0 0 20  XYZ
    dof rx ry rz
    limits (-160.0 20.0)
           (-70.0 70.0)
           (-60.0 70.0)
  end
  begin
     id 3 
     name ltibia
     direction 0.34202 -0.939693 0   
     length 7.91399   
     axis 0 0 20   XYZ
    dof rx
    limits (-10.0 170.0)
  end
  begin
     id 4 
     name lfoot
     direction 0.0705293 -0.193778 0.978507   
     length 2.13618   
     axis -90 7.62852e-016 20   XYZ
    dof rx rz
    limits (-45.0 90.0)
           (-70.0 20.0)
  end
  begin
     id 5 
     name ltoes
     direction 1.53592e-011 -4.21925e-011 1   
     length 1.07518   
     axis -90 7.62852e-016 20   XYZ
    dof rx
    limits (-90.0 20.0)
  end
  begin
     id 6 
     name rhipjoint
     direction -0.57 -0.782963 0.249136   
     length 2.4047  
     axis 0 0 0  XYZ 
  end
  begin
     id 7 
     name rfemur
     direction -0.34202 -0.939693 0   
     length 7.51486   
     axis 0 0 -20   XYZ
    dof rx ry rz
    limits (-160.0 20.0)
           (-70.0 70.0)
           (-70.0 60.0)
  end
  begin
     id 8 
     name rtibia
     direction -0.34202 -0.939693 0   
     length 8.08317   
     axis 0 0 -20   XYZ
    dof rx
    limits (-10.0 170.0)
 end
 begin
     id 9 
     name rfoot
     direction -0.104954 -0.281256 0.953876   
     length 2.30343  
     axis -90 -7.62852e-016 -20   XYZ
    dof rx rz
    limits (-45.0 90.0)
           (-20.0 70.0)
  end
  begin
     id 10 
     name rtoes
     direction -1.53556e-011 -4.21922e-011 1   
     length 1.14803   
     axis -90 -7.62852e-016 -20   XYZ
    dof rx
    limits (-90.0 20.0)
  end
  begin
     id 11 
     name lowerback
     direction -0.0152855 0.99353 -0.11254   
     length 2.05311   
     axis 0 0 0   XYZ
    dof rx ry rz
    limits (-20.0 45.0)
           (-30.0 30.0)
           (-30.0 30.0)
  end
  begin
     id 12 
     name upperback
     direction -0.00157509 0.999443 -0.033332   
     length 2.06353   
     axis 0 0 0   XYZ
    dof rx ry rz
    limits (-20.0 45.0)
           (-30.0 30.0)
           (-30.0 30.0)
  end
  begin
     id 13 
     name thorax
     direction 0.00577788 0.999804 0.0189484   
     length 2.08472   
     axis 0 0 0   XYZ
    dof rx ry rz
    limits (-20.0 45.0)
           (-30.0 30.0)
           (-30.0 30.0)
  end
  begin
     id 14 
     name lowerneck
     direction -1.09301e-005 0.994719 0.10264   
     length 1.76249   
     axis 0 0 0   XYZ
    dof rx ry rz
    limits (-20.0 45.0)
           (-30.0 30.0)
           (-30.0 30.0)
  end
  begin
     id 15 
     name upperneck
     direction 0.0495018 0.988526 -0.142706   
     length 1.77897   
     axis 0 0 0   XYZ
    dof rx ry rz
    limits (-20.0 45.0)
           (-30.0 30.0)
           (-30.0 30.0)
  end
  begin
     id 16
     name head
     direction 0.0142736 0.998114 -0.0597101  
     length 1.78934  
     axis 0 0 0   XYZ
    dof rx ry rz
    limits (-20.0 45.0)
           (-30.0 30.0)
           (-30.0 30.0)
  end
  begin
     id 17 
     name lclavicle
     direction 0.918111 0.396107 -0.0130883  
     length 3.37276  
     axis 0 0 0   XYZ
    dof ry rz
    limits (-20.0 10.0)
           (0.0 20.0)
  end
  begin
     id 18 
     name lhumerus
     direction 1 -4.48975e-011 -3.26108e-027   
     length 5.34298   
     axis 180 -30 -90   XYZ
    dof rx ry rz
    limits (-60.0 90.0)
           (-90.0 90.0)
           (-90.0 90.0)
  end
  begin
     id 19
     name lradius
     direction 1 -4.48964e-011 -8.84413e-028   
     length 3.67262   
     axis 180 -30 -90   XYZ
    dof rx
    limits (-10.0 170.0)
  end
  begin
     id 20
     name lwrist
     direction 1 -4.48991e-011 -1.24264e-027   
     length 1.83631   
     axis -2.17013e-015 90 90   XYZ
    dof ry
    limits (-180.0 0.0)
 end
  begin
     id 21 
     name lhand
     direction 1 -4.48855e-011 -2.48528e-027   
     length 0.599298   
     axis 1.58582e-015 90 90   XYZ
    dof rx rz
    limits (-90.0 90.0)
           (-45.0 45.0)
  end
  begin
     id 22 
     name lfingers
     direction 1 -4.48811e-011 -4.97056e-027   
     length 0.48317   
     axis 3.17164e-015 90 90   XYZ
    dof rx
    limits (0.0 90.0)
  end
  begin
     id 23
     name lthumb
     direction 0.707107 -6.34882e-011 0.707107   
     length 0.693738   
     axis -90 45 2.85299e-015   XYZ
    dof rx rz
    limits (-45.0 45.0)
           (-45.0 45.0)
  end
  begin
     id 24 
     name rclavicle
     direction -0.920511 0.384752 -0.0680135   
     length 3.43787  
     axis 0 0 0   XYZ 
    dof ry rz
    limits (-10.0 20.0)
           (-20.0 0.0)
  end
  begin
     id 25 
     name rhumerus
     direction -0.999976 -0.00330524 0.00603274  
     length 5.5498   
     axis 180 30 90   XYZ
    dof rx ry rz
    limits (-90.0 60.0)
           (-90.0 90.0)
           (-90.0 90.0)
  end
  begin
     id 26 
     name rradius
     direction -1 -4.48967e-011 8.62438e-027   
     length 3.69401   
     axis 180 30 90   XYZ
    dof rx
    limits (-10.0 170.0)
  end
  begin
     id 27 
     name rwrist
     direction -1 -4.4897e-011 9.54866e-027   
     length 1.84701   
     axis -7.69462e-015 -90 -90   XYZ
    dof ry
    limits (-180.0 0.0)
  end
  begin
     id 28
     name rhand
     direction -1 -4.48982e-011 1.90973e-026   
     length 0.638113   
     axis -1.21857e-014 -90 -90   XYZ
    dof rx rz
    limits (-90.0 90.0)
           (-45.0 45.0)
  end
  begin
     id 29
     name rfingers
     direction -1 -4.48936e-011 3.81946e-026   
     length 0.514463   
     axis -2.43714e-014 -90 -90   XYZ
    dof rx
    limits (0.0 90.0)
  end
  begin
     id 30
     name rthumb
     direction -0.707107 -6.34942e-011 0.707107   
     length 0.738669   
     axis -90 -45 -2.85299e-015   XYZ
    dof rx rz
    limits (-45.0 45.0)
           (-45.0 45.0)
  end
:hierarchy
  begin
    root lhipjoint rhipjoint lowerback
    lhipjoint lfemur
    lfemur ltibia
    ltibia lfoot
    lfoot ltoes
    rhipjoint rfemur
    rfemur rtibia
    rtibia rfoot
    rfoot rtoes
    lowerback upperback
    upperback thorax
    thorax lowerneck lclavicle rclavicle
    lowerneck upperneck
    upperneck head
    lclavicle lhumerus
    lhumerus lradius
    lradius lwrist
    lwrist lhand lthumb
    lhand lfingers
    rclavicle rhumerus
    rhumerus rradius
    rradius rwrist
    rwrist rhand rthumb
    rhand rfingers
  end

#!OML:ASF F:\twosubjects\two\Thursday\Session 1\Rory.ASF
:FULLY-SPECIFIED
:DEGREES
33
root 17.6489 18.4407 -11.2908 4.11159 -5.72487 -0.14972
lowerback -0.966791 -0.344213 0.353036
upperback 2.24419 -0.514327 1.77853
thorax 2.85877 -0.271125 1.6114
lowerneck -7.67532 -5.92895 -3.58267
upperneck 41.8842 -9.99672 3.37341
head 16.8787 -4.34356 0.538423
rclavicle -2.3556e-014 5.96354e-015
rhumerus -40.6659 28.7725 -100.371
rradius 94.3446
rwrist -72.4249
rhand -20.5405 -4.21514
rfingers 7.12502
rthumb 5.81802 -34.1153
lclavicle -2.3556e-014 5.96354e-015
lhumerus -41.1548 -39.0255 106.817
lradius 94.6212
lwrist -38.2721
lhand -24.655 27.4596
lfingers 7.12502
lthumb 1.84477 57.4314
rfemur -17.0146 6.3687 22.2938
rtibia 21.7281
rfoot -9.31289 -2.08823
rtoes 7.88769
lfemur -13.0932 8.49912 -13.6962
ltibia 56.5262
lfoot 4.16333 -9.12273
ltoes -17.6796
34
root 17.6415 18.4463 -11.1722 4.20023 -5.78481 0.320927
lowerback -1.18514 -0.40868 -0.0173736
upperback 2.31365 -0.591962 1.67852
thorax 3.05829 -0.317914 1.71228
lowerneck -7.80234 -5.94353 -3.88617
upperneck 41.9182 -9.96971 3.42614
head 16.9559 -4.36906 0.613038
rclavicle -6.85807e-015 -3.18055e-015
rhumerus -40.3176 28.6817 -100.059
rradius 94.2087
rwrist -72.2261
rhand -19.6481 -4.55186
rfingers 7.12502
rthumb 6.6795 -34.4265
lclavicle -6.85807e-015 -3.18055e-015
lhumerus -38.6382 -38.0206 106.572
lradius 92.2843
lwrist -38.4846
lhand -24.9573 26.7284
lfingers 7.12502
lthumb 1.55285 56.7025
rfemur -16.8106 6.27283 21.7965
rtibia 21.9358
rfoot -9.78885 -1.98084
rtoes 7.52818
lfemur -14.279 8.79707 -14.2569
ltibia 57.3178
lfoot 2.59376 -7.76018
ltoes -17.9811
35
root 17.6323 18.4428 -11.056 4.26166 -5.87237 0.628629
lowerback -1.09242 -0.388345 -0.26259
upperback 2.21222 -0.554204 1.60749
thorax 2.90184 -0.302654 1.77888
lowerneck -7.74437 -6.00419 -4.07688
upperneck 41.9743 -10.031 3.44095
head 16.9933 -4.42241 0.644164
rclavicle -9.0447e-015 -6.36111e-015
rhumerus -40.1511 28.277 -99.8399
rradius 94.0782
rwrist -71.9708
rhand -19.0093 -4.32032
rfingers 7.12502
rthumb 7.29615 -34.1745
lclavicle -9.0447e-015 -6.36111e-015
lhumerus -38.6454 -38.3749 106.503
lradius 92.3997
lwrist -37.8924
lhand -25.2633 27.5357
lfingers 7.12502
lthumb 1.25722 57.5117
rfemur -16.6079 6.50039 21.4793
rtibia 22.1879
rfoot -9.86405 -2.21533
rtoes 7.21202
lfemur -15.3996 9.05992 -14.6359
ltibia 57.9166
lfoot 1.28147 -6.2726
ltoes -16.6385
36
root 17.6326 18.4406 -10.9454 4.3129 -5.90816 0.721448
lowerback -0.900933 -0.35074 -0.0783514
upperback 2.08878 -0.500963 1.4291
thorax 2.66127 -0.268355 1.49493
lowerneck -7.61364 -6.07706 -3.92091
upperneck 42.0028 -10.1992 3.46101
head 16.9777 -4.46903 0.602782
rclavicle -3.18055e-015 -1.70955e-014
rhumerus -40.1028 27.7463 -99.8472
rradius 94.0968
rwrist -71.7263
rhand -18.893 -3.04137
rfingers 7.12502
rthumb 7.4084 -32.8917
lclavicle -3.18055e-015 -1.70955e-014
lhumerus -40.1345 -38.3434 106.542
lradius 93.8078
lwrist -37.3901
lhand -25.7224 27.9352
lfingers 7.12502
lthumb 0.813861 57.9134
rfemur -16.411 6.22902 21.4064
rtibia 22.4782
rfoot -9.82208 -2.02985
rtoes 6.37369
lfemur -16.4958 9.1098 -14.8474
ltibia 58.3386
lfoot 0.279457 -4.83071
ltoes -14.2866
37
root 17.6271 18.4428 -10.8415 4.32267 -5.9528 0.497299
lowerback -0.731511 -0.346734 0.340441
upperback 2.10157 -0.502541 1.40048
thorax 2.57502 -0.260032 1.23144
lowerneck -7.58105 -6.14007 -3.90997
upperneck 41.9247 -10.2823 3.43486
head 16.9269 -4.50836 0.576714
rclavicle -1.38155e-014 -2.0276e-014
rhumerus -39.9149 27.3978 -99.7909
rradius 94.1961
rwrist -71.4461
rhand -19.0478 -2.88955
rfingers 7.12502
rthumb 7.25903 -32.745
lclavicle -1.38155e-014 -2.0276e-014
lhumerus -39.6098 -37.6879 106.446
lradius 93.2377
lwrist -37.0648
lhand -26.1348 27.5905
lfingers 7.12502
lthumb 0.415585 57.5699
rfemur -16.1779 5.7027 21.7469
rtibia 22.7746
rfoot -10.2299 -1.63454
rtoes 4.70105
lfemur -17.6176 9.18606 -14.6163
ltibia 58.609
lfoot -0.504542 -3.477
ltoes -9.92537
38
root 17.6166 18.4414 -10.7311 4.36942 -5.93957 0.443774
lowerback -0.699882 -0.396599 0.429811
upperback 2.10924 -0.572051 1.46161
thorax 2.56628 -0.293626 1.24224
lowerneck -7.47636 -6.18016 -4.15571
upperneck 41.7245 -10.2377 3.36865
head 16.7969 -4.54338 0.602539
rclavicle -9.14409e-015 6.36111e-015
rhumerus -39.8445 27.1317 -99.6025
rradius 94.4413
rwrist -71.1288
rhand -18.8967 -2.00534
rfingers 7.12502
rthumb 7.4049 -31.8557
lclavicle -9.14409e-015 6.36111e-015
lhumerus -39.3399 -37.1165 106.198
lradius 93.5281
lwrist -36.6154
lhand -25.9945 27.5624
lfingers 7.12502
lthumb 0.551071 57.5415
rfemur -15.9547 5.37286 21.873
rtibia 23.0388
rfoot -10.8351 -1.41885
rtoes 3.62681
lfemur -18.7134 9.22305 -14.5686
ltibia 58.7014
lfoot -1.29343 -2.14577
ltoes -6.29171
39
root 17.6091 18.4377 -10.613 4.45576 -5.90127 0.656787
lowerback -0.770791 -0.524645 0.0817028
upperback 2.03654 -0.738201 1.5803
thorax 2.54072 -0.3847 1.55419
lowerneck -7.32701 -6.16599 -4.57774
upperneck 41.6237 -10.0956 3.32828
head 16.7224 -4.56135 0.687453
rclavicle 9.0447e-015 -1.66979e-014
rhumerus -39.927 27.2201 -99.3336
rradius 94.6477
rwrist -70.9539
rhand -18.9001 -2.60515
rfingers 7.12502
rthumb 7.40153 -32.4557
lclavicle 9.0447e-015 -1.66979e-014
lhumerus -41.5893 -36.9248 106.045
lradius 96.3307
lwrist -36.0978
lhand -26.0597 27.9655
lfingers 7.12502
lthumb 0.488044 57.9447
rfemur -15.7753 5.24712 21.64
rtibia 23.3066
rfoot -11.3749 -1.29331
rtoes 3.97082
lfemur -19.6476 9.14552 -14.9026
ltibia 58.6251
lfoot -2.13241 -0.953245
ltoes -5.20917
40
root 17.5983 18.4296 -10.5047 4.45607 -6.00213 0.496116
lowerback -0.800066 -0.695574 0.430865
upperback 2.06431 -0.973293 1.53173
thorax 2.58533 -0.494617 1.30085
lowerneck -7.17285 -6.03537 -5.05796
upperneck 41.572 -9.90101 3.60199
head 16.7021 -4.52987 0.928717
rclavicle 9.54166e-015 -2.8625e-014
rhumerus -39.9377 27.4411 -99.5102
rradius 94.7627
rwrist -70.8006
rhand -19.5678 -2.21082
rfingers 7.12502
rthumb 6.75703 -32.083
lclavicle 9.54166e-015 -2.8625e-014
lhumerus -41.0388 -33.7043 105.894
lradius 94.8018
lwrist -37.8904
lhand -26.612 26.1849
lfingers 7.12502
lthumb -0.0453219 56.1646
rfemur -15.4957 5.72919 21.8455
rtibia 23.5681
rfoot -11.8453 -1.72335
rtoes 4.54826
lfemur -20.4625 9.21048 -14.7531
ltibia 58.3991
lfoot -2.75342 1.35895
ltoes -7.02159
41
root 17.5896 18.4238 -10.3963 4.48143 -6.11452 0.567625
lowerback -0.641806 -0.6617 0.372716
upperback 2.14017 -0.925094 1.49048
thorax 2.57352 -0.471496 1.29402
lowerneck -7.40847 -6.15624 -5.21297
upperneck 41.3823 -10.0326 3.63009
head 16.6784 -4.60038 0.936568
rclavicle 1.28216e-014 -2.90226e-014
rhumerus -39.6084 27.1201 -99.1833
rradius 94.8526
rwrist -70.6088
rhand -21.2729 -1.42235
rfingers 7.12502
rthumb 5.11086 -31.3407
lclavicle 1.28216e-014 -2.90226e-014
lhumerus -40.0392 -34.7525 105.537
lradius 94.6835
lwrist -36.8718
lhand -27.0774 28.1406
lfingers 7.12502
lthumb -0.494872 58.1198
rfemur -15.2546 6.15153 21.7732
rtibia 23.7759
rfoot -12.3044 -2.08223
rtoes 5.41009
lfemur -21.3915 9.14483 -14.8853
ltibia 57.9766
lfoot -3.73875 2.49392
ltoes -6.42482
42
root 17.5837 18.4227 -10.2896 4.53583 -6.17068 0.732919
lowerback -0.525393 -0.553823 0.244878
upperback 2.18223 -0.775779 1.39652
thorax 2.5485 -0.398591 1.27446
lowerneck -7.48887 -6.29077 -5.02261
upperneck 41.103 -10.2284 3.58127
head 16.5381 -4.65848 0.847658
rclavicle 1.5704e-014 -1.98785e-015
rhumerus -39.1428 26.4475 -98.7952
rradius 94.7255
rwrist -70.3635
rhand -21.0345 1.42365
rfingers 7.12502
rthumb 5.34106 -28.489
lclavicle 1.5704e-014 -1.98785e-015
lhumerus -41.8336 -35.2925 105.347
lradius 97.254
lwrist -35.9492
lhand -27.2914 29.6761
lfingers 7.12502
lthumb -0.701523 59.6547
rfemur -15.0604 6.0369 21.5992
rtibia 23.9342
rfoot -12.6669 -1.92777
rtoes 5.77455
lfemur -22.3605 8.81901 -15.1548
ltibia 57.4113
lfoot -4.61472 4.23491
ltoes -7.55213
43
root 17.5795 18.4139 -10.1907 4.55106 -6.21249 0.567547
lowerback -0.288282 -0.420049 0.631736
upperback 2.22945 -0.598707 1.26097
thorax 2.45432 -0.300769 0.924877
lowerneck -7.56521 -6.38755 -4.77217
upperneck 40.8511 -10.4467 3.69123
head 16.4238 -4.69775 0.814731
rclavicle -1.88845e-015 7.95139e-016
rhumerus -38.7016 25.5401 -98.559
rradius 94.5681
rwrist -70.0596
rhand -22.5175 -1.74365
rfingers 7.12502
rthumb 3.90906 -31.6875
lclavicle -1.88845e-015 7.95139e-016
lhumerus -42.0515 -34.947 104.97
lradius 97.6856
lwrist -35.2492
lhand -27.7578 29.8459
lfingers 7.12502
lthumb -1.15204 59.8225
rfemur -14.8254 5.39596 21.8455
rtibia 24.0969
rfoot -12.9409 -1.34498
rtoes 4.74009
lfemur -23.1786 8.64163 -15.0301
ltibia 56.745
lfoot -5.5124 5.46717
ltoes -9.11243
44
root 17.5758 18.4018 -10.0919 4.57054 -6.26794 0.455099
lowerback -0.0487626 -0.403404 0.94524
upperback 2.2625 -0.57559 1.15433
thorax 2.34911 -0.281904 0.641993
lowerneck -7.62451 -6.41454 -4.77735
upperneck 40.5419 -10.4922 3.79449
head 16.2823 -4.70849 0.851558
rclavicle -2.65378e-014 -2.42517e-014
rhumerus -38.5706 24.9673 -98.4431
rradius 94.675
rwrist -69.7583
rhand -22.778 -1.82875
rfingers 7.12502
rthumb 3.65752 -31.7771
lclavicle -2.65378e-014 -2.42517e-014
lhumerus -41.2553 -32.7432 104.743
lradius 96.1972
lwrist -35.5367
lhand -28.1066 27.9383
lfingers 7.12502
lthumb -1.48886 57.9128
rfemur -14.626 4.54058 22.0268
rtibia 24.2933
rfoot -13.3505 -0.559628
rtoes 4.76373
lfemur -23.9501 8.53138 -14.9851
ltibia 55.9001
lfoot -6.60739 5.63768
ltoes -8.21536
